<svg width="20" height="20" viewBox="0 0 20 20" fill="none" xmlns="http://www.w3.org/2000/svg">
<path d="M17.0508 2.90999C16.1338 1.9841 15.0418 1.24996 13.8383 0.750355C12.6348 0.250751 11.3439 -0.0043242 10.0408 -7.14002e-06C4.58078 -7.14002e-06 0.130781 4.44999 0.130781 9.90999C0.130781 11.66 0.590781 13.36 1.45078 14.86L0.0507812 20L5.30078 18.62C6.75078 19.41 8.38078 19.83 10.0408 19.83C15.5008 19.83 19.9508 15.38 19.9508 9.91999C19.9508 7.26999 18.9208 4.77999 17.0508 2.90999ZM10.0408 18.15C8.56078 18.15 7.11078 17.75 5.84078 17L5.54078 16.82L2.42078 17.64L3.25078 14.6L3.05078 14.29C2.22833 12.9771 1.79171 11.4593 1.79078 9.90999C1.79078 5.36999 5.49078 1.66999 10.0308 1.66999C12.2308 1.66999 14.3008 2.52999 15.8508 4.08999C16.6184 4.85386 17.2267 5.76254 17.6404 6.76332C18.0541 7.76411 18.265 8.83708 18.2608 9.91999C18.2808 14.46 14.5808 18.15 10.0408 18.15ZM14.5608 11.99C14.3108 11.87 13.0908 11.27 12.8708 11.18C12.6408 11.1 12.4808 11.06 12.3108 11.3C12.1408 11.55 11.6708 12.11 11.5308 12.27C11.3908 12.44 11.2408 12.46 10.9908 12.33C10.7408 12.21 9.94078 11.94 9.00078 11.1C8.26078 10.44 7.77078 9.62999 7.62078 9.37999C7.48078 9.12999 7.60078 8.99999 7.73078 8.86999C7.84078 8.75999 7.98078 8.57999 8.10078 8.43999C8.22078 8.29999 8.27078 8.18999 8.35078 8.02999C8.43078 7.85999 8.39078 7.71999 8.33078 7.59999C8.27078 7.47999 7.77078 6.25999 7.57078 5.75999C7.37078 5.27999 7.16078 5.33999 7.01078 5.32999H6.53078C6.36078 5.32999 6.10078 5.38999 5.87078 5.63999C5.65078 5.88999 5.01078 6.48999 5.01078 7.70999C5.01078 8.92999 5.90078 10.11 6.02078 10.27C6.14078 10.44 7.77078 12.94 10.2508 14.01C10.8408 14.27 11.3008 14.42 11.6608 14.53C12.2508 14.72 12.7908 14.69 13.2208 14.63C13.7008 14.56 14.6908 14.03 14.8908 13.45C15.1008 12.87 15.1008 12.38 15.0308 12.27C14.9608 12.16 14.8108 12.11 14.5608 11.99Z" fill="white"/>
</svg>
